<?xml version="1.0" encoding="UTF-8" standalone="no"?>
<!-- Created with Inkscape (http://www.inkscape.org/) -->

<svg
   width="74.083336mm"
   height="65.616669mm"
   viewBox="0 0 74.083336 65.61667"
   version="1.1"
   id="svg3405"
   inkscape:version="1.1.2 (0a00cf5, 2022-02-04)"
   sodipodi:docname="hat.svg"
   xmlns:inkscape="http://www.inkscape.org/namespaces/inkscape"
   xmlns:sodipodi="http://sodipodi.sourceforge.net/DTD/sodipodi-0.dtd"
   xmlns="http://www.w3.org/2000/svg"
   xmlns:svg="http://www.w3.org/2000/svg">
  <sodipodi:namedview
     id="namedview3407"
     pagecolor="#505050"
     bordercolor="#eeeeee"
     borderopacity="1"
     inkscape:pageshadow="0"
     inkscape:pageopacity="0"
     inkscape:pagecheckerboard="0"
     inkscape:document-units="mm"
     showgrid="false"
     fit-margin-top="0"
     fit-margin-left="0"
     fit-margin-right="0"
     fit-margin-bottom="0"
     inkscape:zoom="0.55945567"
     inkscape:cx="127.8028"
     inkscape:cy="237.73108"
     inkscape:window-width="1440"
     inkscape:window-height="838"
     inkscape:window-x="0"
     inkscape:window-y="0"
     inkscape:window-maximized="1"
     inkscape:current-layer="layer1" />
  <defs
     id="defs3402" />
  <g
     inkscape:label="Layer 1"
     inkscape:groupmode="layer"
     id="layer1"
     transform="translate(-36.262386,-77.857262)">
    <path
       id="path3466"
       style="stroke-width:0.999999"
       d="m 193.05469,294.26367 v 8 h -8 -8 -8 -8 v 8 8 8 8 8 8 8 h 8 v 8 8 8 8 8 8 h 8 v 8 8 8 8 8 8 h 8 8 v 8 h 8 8 8 v 8 h 8 8 8 8 8 8 v 8 h 8 8 8 8 8 v -8 h 8 8 8 8 8 v -8 h 8 8 8 v -8 -8 -8 -8 h 8 v -8 -8 -8 -8 -8 -8 -8 -8 h 8 v -8 -8 -8 -8 -8 -8 -8 -8 h -8 -8 -8 -8 -8 v -8 h -8 -8 -8 -8 -8 -8 -8 -8 -8 -8 -8 -8 -8 -8 -8 -8 -8 -8 z m -32,176 v 8 h -8 -8 v 8 h -8 v 8 8 8 h 8 v 8 h 8 8 v 8 h 8 8 8 v 8 h 8 8 8 8 8 v 8 h 8 8 8 8 8 8 8 8 8 8 8 8 8 v -8 h 8 8 8 8 8 v -8 h 8 8 8 v -8 h 8 8 v -8 h 8 v -8 -8 -8 h -8 v -8 h -8 -8 v -8 h -8 -8 -8 v 8 8 h -8 v 8 h -8 -8 -8 v 8 h -8 -8 -8 -8 -8 -8 -8 -8 -8 -8 -8 -8 -8 -8 -8 v -8 h -8 -8 -8 v -8 h -8 v -8 h -8 v -8 h -8 z"
       transform="scale(0.26458333)" />
    <path
       id="path4504"
       style="fill:#f4f4f6;fill-opacity:1;stroke-width:0.999999"
       d="m 177.05469,454.26367 v 8 8 8 h 8 v 8 h 8 v 8 h 8 8 8 v 8 h 8 8 8 8 8 8 8 8 8 8 8 8 8 8 8 v -8 h 8 8 8 v -8 h 8 v -8 -8 -8 h -8 -8 -8 v 8 h -8 -8 -8 -8 -8 v 8 h -8 -8 -8 -8 -8 v -8 h -8 -8 -8 -8 -8 -8 v -8 h -8 -8 -8 v -8 h -8 z"
       transform="scale(0.26458333)" />
  </g>
</svg>
