<?xml version="1.0" encoding="UTF-8" standalone="no"?>
<!-- Created with Inkscape (http://www.inkscape.org/) -->

<svg
   width="51.976154mm"
   height="11.641666mm"
   viewBox="0 0 51.976155 11.641666"
   version="1.1"
   id="svg5"
   inkscape:version="1.1.2 (0a00cf5, 2022-02-04)"
   sodipodi:docname="shades.svg"
   xmlns:inkscape="http://www.inkscape.org/namespaces/inkscape"
   xmlns:sodipodi="http://sodipodi.sourceforge.net/DTD/sodipodi-0.dtd"
   xmlns="http://www.w3.org/2000/svg"
   xmlns:svg="http://www.w3.org/2000/svg">
  <sodipodi:namedview
     id="namedview7"
     pagecolor="#505050"
     bordercolor="#eeeeee"
     borderopacity="1"
     inkscape:pageshadow="0"
     inkscape:pageopacity="0"
     inkscape:pagecheckerboard="0"
     inkscape:document-units="mm"
     showgrid="false"
     inkscape:zoom="2.2378227"
     inkscape:cx="56.975024"
     inkscape:cy="18.768243"
     inkscape:window-width="1440"
     inkscape:window-height="838"
     inkscape:window-x="0"
     inkscape:window-y="0"
     inkscape:window-maximized="1"
     inkscape:current-layer="layer1"
     fit-margin-top="0"
     fit-margin-left="0"
     fit-margin-right="0"
     fit-margin-bottom="0" />
  <defs
     id="defs2" />
  <g
     inkscape:label="Layer 1"
     inkscape:groupmode="layer"
     id="layer1"
     transform="translate(-117.78247,-96.804942)">
    <path
       id="path824"
       style="stroke-width:0.999999"
       d="m 445.16211,365.87695 v 7.33399 7.33203 7.33398 h 7.55664 v 7.33399 h 7.55469 v 7.33203 h 7.55664 v 7.33398 h 7.55469 7.55664 7.55468 7.55469 v -7.33398 h -7.55469 v -7.33203 h -7.55468 v 7.33203 h -7.55664 v -7.33203 h -7.55469 v -7.33399 h -7.55664 v -7.33398 h 7.55664 v 7.33398 h 7.55469 v -7.33398 h 7.55664 v 7.33398 h 7.55468 v 7.33399 h 7.55469 v -7.33399 -7.33398 -7.33203 -7.33399 h -7.55469 -7.55468 -7.55664 -7.55469 -7.55664 -7.55469 z m 37.7793,22 h -7.55664 v 7.33399 h 7.55664 z m 15.11132,-22 v 7.33399 7.33203 7.33398 7.33399 7.33203 7.33398 h 7.55469 7.55469 v -7.33398 h 7.55664 v -7.33203 h 7.55469 v -7.33399 h 7.55664 v -7.33398 h 7.55469 7.55664 v 7.33398 h 7.55468 v 7.33399 h 7.55469 v 7.33203 h 7.55664 v 7.33398 h 7.55469 7.55664 7.55469 7.55664 7.55469 v -7.33398 -7.33203 -7.33399 -7.33398 -7.33203 -7.33399 h -7.55469 -7.55664 -7.55469 -7.55664 -7.55469 -7.55664 -7.55469 -7.55468 -7.55664 -7.55469 -7.55664 -7.55469 -7.55664 -7.55469 z m 113.33399,0 v 7.33399 7.33203 7.33398 7.33399 7.33203 7.33398 h 7.55469 v -7.33398 h 7.55468 v -7.33203 h 7.55664 v -7.33399 h 7.55469 v -7.33398 -7.33203 -7.33399 h -7.55469 -7.55664 -7.55468 z m -45.33594,14.66602 h 7.55664 v 7.33398 h 7.55469 v -7.33398 h 7.55664 v 7.33398 h 7.55469 v 7.33399 h 7.55664 v 7.33203 h -7.55664 v -7.33203 h -7.55469 v 7.33203 h -7.55664 v -7.33203 h -7.55469 v -7.33399 h -7.55664 z m 15.11133,14.66797 h 7.55664 v -7.33399 h -7.55664 z"
       transform="scale(0.26458333)" />
    <path
       id="path840"
       style="fill:#ffffff;fill-opacity:1;stroke-width:0.999999"
       d="m 460.27344,380.54297 v 7.33398 h 7.55664 v -7.33398 z m 7.55664,7.33398 v 7.33399 h 7.55469 v -7.33399 z m 7.55469,7.33399 v 7.33203 h 7.55664 v -7.33203 z m 7.55664,0 h 7.55468 v -7.33399 h -7.0664 v -7.33398 H 475.875 v 7.33398 h 7.06641 z m 7.55468,0 v 7.33203 h 7.55469 v -7.33203 z m 75.55469,-14.66797 v 7.33398 h 7.55664 v -7.33398 z m 7.55664,7.33398 v 7.33399 h 7.55469 v -7.33399 z m 7.55469,0 h 7.55664 v -7.33398 h -7.55664 z m 7.55664,0 v 7.33399 h 7.55469 v -7.33399 z m 7.55469,7.33399 v 7.33398 h 7.55664 v -7.33398 z m -7.55469,0 h -7.55664 v 7.33203 h 7.55664 z"
       transform="scale(0.26458333)" />
  </g>
</svg>
