<?xml version="1.0" encoding="UTF-8" standalone="no"?>
<!-- Created with Inkscape (http://www.inkscape.org/) -->

<svg
   width="63.5mm"
   height="16.933332mm"
   viewBox="0 0 63.5 16.933332"
   version="1.1"
   id="svg1903"
   inkscape:version="1.1.2 (0a00cf5, 2022-02-04)"
   sodipodi:docname="stache.svg"
   xmlns:inkscape="http://www.inkscape.org/namespaces/inkscape"
   xmlns:sodipodi="http://sodipodi.sourceforge.net/DTD/sodipodi-0.dtd"
   xmlns="http://www.w3.org/2000/svg"
   xmlns:svg="http://www.w3.org/2000/svg">
  <sodipodi:namedview
     id="namedview1905"
     pagecolor="#505050"
     bordercolor="#eeeeee"
     borderopacity="1"
     inkscape:pageshadow="0"
     inkscape:pageopacity="0"
     inkscape:pagecheckerboard="0"
     inkscape:document-units="mm"
     showgrid="false"
     fit-margin-top="0"
     fit-margin-left="0"
     fit-margin-right="0"
     fit-margin-bottom="0"
     inkscape:zoom="0.3955949"
     inkscape:cx="36.653658"
     inkscape:cy="270.47872"
     inkscape:window-width="1440"
     inkscape:window-height="838"
     inkscape:window-x="0"
     inkscape:window-y="0"
     inkscape:window-maximized="1"
     inkscape:current-layer="layer1" />
  <defs
     id="defs1900" />
  <g
     inkscape:label="Layer 1"
     inkscape:groupmode="layer"
     id="layer1"
     transform="translate(-65.673509,-95.104788)">
    <path
       id="path1964"
       style="stroke-width:0.999999"
       d="m 256.21484,359.45117 v 8 h -8 v 8 8 8 8 h 8 v 8 h 8 v 8 h 8 8 v 8 h 8 8 8 8 8 8 v -8 h 8 8 v -8 h 8 8 v -8 h 8 8 v 8 h 8 8 v 8 h 8 8 v 8 h 8 8 8 8 8 8 8 8 v -8 h 8 v -8 h 8 v -8 -8 -8 -8 -8 h -8 v -8 h -8 -8 -8 v 8 h 8 v 8 8 h -8 -8 v -8 h -8 -8 v -8 h -8 -8 v -8 h -8 -8 -8 -8 -8 v 8 h -8 -8 v -8 h -8 -8 -8 -8 -8 v 8 h -8 -8 v 8 h -8 -8 v 8 h -8 -8 v -8 -8 h 8 v -8 h -8 -8 z"
       transform="scale(0.26458333)" />
  </g>
</svg>
