<svg width="171" height="40" viewBox="0 0 171 40" fill="none" xmlns="http://www.w3.org/2000/svg">
<path d="M67.76 14.9855C67.7437 14.8885 67.7271 14.7917 67.7086 14.6954C67.6494 14.3851 67.6494 14.3851 67.6494 14.3851C67.5663 14.0492 67.1916 13.7744 66.8169 13.7743L57.732 13.7735C57.3571 13.7734 56.956 14.0627 56.8405 14.4162L54.9103 20.3242C54.8533 20.4986 54.7783 20.7136 54.8611 20.8297C54.9462 20.9488 55.192 20.9669 55.3819 20.9669H59.0806C59.0806 20.9669 59.2534 20.9655 59.2764 21.0844C59.301 21.2107 59.1685 21.3467 59.1685 21.3467L52.6486 28.1404C52.4206 28.3781 52.0223 28.7927 51.7638 29.0617L50.0914 30.8014C50.0914 30.8014 50.0573 30.8395 50.0173 30.8759C49.9943 30.8971 49.9722 30.9155 49.9511 30.9318C49.7191 31.1105 49.6094 31.0105 49.7057 30.6837L50.5567 27.7924C50.6617 27.4358 50.8334 26.8519 50.9385 26.4953L51.4259 24.8393C51.5076 24.5616 51.6004 24.2466 51.6588 24.0481C51.6753 23.9917 51.714 23.8177 51.6556 23.7298C51.6003 23.6463 51.507 23.6305 51.4022 23.6305C51.2888 23.6305 51.1551 23.6305 51.0145 23.6305H47.4917C47.1168 23.6305 46.991 23.4423 47.2121 23.2124C47.4331 22.9825 47.8254 22.5742 48.0841 22.3052L50.8229 19.4562C51.0815 19.1872 51.4796 18.7726 51.7079 18.5348C51.9361 18.297 52.3343 17.8823 52.5925 17.613L53.055 17.1311C53.3135 16.8618 53.7362 16.4212 53.9945 16.1521L54.9437 15.1632C55.202 14.8939 55.6078 14.4711 55.8452 14.2235C56.0829 13.976 56.3395 13.7086 56.4156 13.6292C56.4916 13.5499 56.7652 13.2648 57.0237 12.9955L62.3041 7.4933C62.5626 7.22404 62.512 6.84553 62.1921 6.65206C62.1921 6.65206 61.4452 6.2007 60.7365 5.90728C58.8944 5.14454 56.8947 4.87313 54.8747 5.05388C54.3051 5.10489 53.7353 5.19157 53.1686 5.31322C51.6392 5.64167 50.1413 6.21992 48.7315 7.02144C47.8512 7.52167 47.009 8.10762 46.2174 8.77057C44.3531 10.3318 42.7885 12.3051 41.6769 14.59C41.1247 15.7251 40.7174 16.8717 40.442 18.0066C39.8646 20.3856 39.8693 22.7215 40.3606 24.8232C40.6873 26.2218 41.2309 27.5259 41.9681 28.684C42.0131 28.7547 42.0591 28.8251 42.1056 28.8947C42.5023 29.4891 42.953 30.0446 43.454 30.5548C44.2183 31.333 45.1042 32.0087 46.1072 32.5548C46.6072 32.8273 47.1205 33.0584 47.6431 33.2512C47.94 33.3605 48.2403 33.4578 48.5433 33.5424C49.0627 33.6876 49.591 33.7964 50.1246 33.8711C54.7723 34.5202 60.1775 32.493 63.9121 28.0473C64.6268 27.1965 65.2494 26.2966 65.7785 25.3622C66.4733 24.1356 67.0064 22.8495 67.3711 21.5383C67.6753 20.4448 67.8617 19.3356 67.9272 18.232C67.9925 17.1346 67.9379 16.0449 67.76 14.9855Z" fill="#686E79"/>
<path d="M67.8353 29.0455L70.7191 14.3448C70.751 14.2018 70.7829 14.0986 70.8152 14.0351C70.8471 13.9717 70.9194 13.9121 71.0316 13.8564C71.1434 13.8008 71.3036 13.7729 71.512 13.7729H80.0677C80.4842 13.7729 80.6602 13.9635 80.5965 14.3448L80.0677 17.0847C80.0677 17.4343 79.8353 17.609 79.3709 17.609H74.6845L74.324 19.5152H78.6258C79.026 19.5152 79.1863 19.674 79.1063 19.9916L78.5776 22.7316C78.5776 23.1287 78.3454 23.3273 77.8808 23.3273H73.5789L73.0984 25.7813H78.3855C78.7378 25.7813 78.8903 25.9562 78.8422 26.3056L78.2895 29.0455C78.2733 29.1729 78.2534 29.2682 78.2293 29.3315C78.2053 29.3952 78.141 29.459 78.0371 29.5222C77.9327 29.5857 77.7765 29.6174 77.5684 29.6174H68.4121C68.1396 29.6174 67.9675 29.5737 67.8954 29.4863C67.8232 29.3992 67.8029 29.2522 67.8353 29.0455Z" fill="#686E79"/>
<path d="M87.4461 20.1106H87.6385C88.4231 18.6016 88.9279 17.6724 89.1524 17.3229L90.7146 14.6066C90.9225 14.2575 91.1148 14.0271 91.2914 13.9157C91.4675 13.8048 91.7479 13.749 92.1324 13.749H95.3767C95.617 13.749 95.7812 13.8127 95.8694 13.9395C95.9573 14.0669 95.9452 14.2017 95.8334 14.3447L89.0081 24.3755L88.1189 29.0455C88.0708 29.4267 87.8143 29.6173 87.3499 29.6173H84.0813C83.6164 29.6173 83.4243 29.4267 83.5046 29.0455L84.4178 24.3755H84.442L81.8223 14.4638C81.7744 14.2575 81.8104 14.0866 81.9306 13.9515C82.0508 13.8168 82.2468 13.749 82.5193 13.749H85.4513C85.8198 13.749 86.0681 13.7929 86.1964 13.88C86.3244 13.9675 86.4285 14.154 86.5088 14.4399L87.0616 17.3229C87.2696 18.5463 87.3981 19.4755 87.4461 20.1106Z" fill="#686E79"/>
<path d="M102.009 13.606C103.659 13.606 104.957 13.8443 105.903 14.3207C106.624 14.6703 106.848 15.0832 106.575 15.5597L105.975 17.2991C105.83 17.6486 105.666 17.8632 105.482 17.9424C105.298 18.0221 105.021 18.0139 104.653 17.9185C103.611 17.7123 102.642 17.6089 101.745 17.6089C101.28 17.6089 100.944 17.6766 100.735 17.8114C100.527 17.9466 100.423 18.2128 100.423 18.6095C100.423 18.9115 100.607 19.1659 100.976 19.372L101.529 19.6104C101.592 19.6264 101.737 19.6698 101.961 19.7413C102.185 19.8128 102.394 19.8806 102.586 19.9438C102.778 20.0075 102.93 20.0629 103.043 20.1107C103.956 20.4603 104.649 20.9207 105.121 21.4927C105.594 22.0644 105.83 22.8507 105.83 23.8515C105.83 26.0755 105.053 27.6636 103.499 28.6167C102.137 29.4268 100.479 29.8318 98.5247 29.8318C96.7941 29.8318 95.4003 29.578 94.3428 29.0694C93.6377 28.7359 93.4217 28.3229 93.6939 27.8305L94.3187 26.1149C94.463 25.7337 94.623 25.5073 94.7994 25.4357C94.9756 25.3645 95.2958 25.3844 95.7607 25.4954C97.2346 25.7181 98.4283 25.829 99.3415 25.829C100.383 25.829 100.904 25.4321 100.904 24.6376C100.904 24.3678 100.82 24.1611 100.651 24.0182C100.483 23.8752 100.174 23.7322 99.7261 23.5893C98.6045 23.2401 97.6511 22.7952 96.8663 22.2549C95.9531 21.5723 95.4964 20.5715 95.4964 19.2529C95.4964 18.2205 95.6724 17.3272 96.0251 16.5725C96.3773 15.8183 96.862 15.2344 97.4791 14.8213C98.0956 14.4084 98.7805 14.1028 99.5339 13.904C100.287 13.7054 101.112 13.606 102.009 13.606Z" fill="#686E79"/>
<path d="M106.439 29.0455L109.323 14.3448C109.355 14.2018 109.387 14.0986 109.419 14.0351C109.451 13.9717 109.523 13.9121 109.635 13.8564C109.747 13.8008 109.908 13.7729 110.116 13.7729H118.671C119.088 13.7729 119.264 13.9635 119.2 14.3448L118.671 17.0847C118.671 17.4343 118.439 17.609 117.975 17.609H113.288L112.928 19.5152H117.23C117.63 19.5152 117.79 19.674 117.71 19.9916L117.182 22.7316C117.182 23.1287 116.949 23.3273 116.485 23.3273H112.183L111.702 25.7813H116.989C117.342 25.7813 117.494 25.9562 117.446 26.3056L116.893 29.0455C116.877 29.1729 116.857 29.2682 116.833 29.3315C116.809 29.3952 116.745 29.459 116.641 29.5222C116.537 29.5857 116.38 29.6174 116.172 29.6174H107.016C106.743 29.6174 106.571 29.5737 106.499 29.4863C106.427 29.3992 106.407 29.2522 106.439 29.0455Z" fill="#686E79"/>
<path d="M122.3 13.7729H127.827C129.061 13.7729 130.054 14.1184 130.808 14.8094C131.56 15.5003 131.937 16.4891 131.937 17.7757C131.937 20.0951 130.96 21.8422 129.005 23.0175L130.231 28.9265C130.279 29.1332 130.235 29.2999 130.098 29.4268C129.962 29.5543 129.774 29.6174 129.534 29.6174H126.53C125.841 29.6174 125.473 29.4111 125.425 28.9979L124.8 23.8753H124.222L123.214 29.0455C123.165 29.4268 122.909 29.6174 122.444 29.6174H119.2C118.927 29.6174 118.751 29.5737 118.671 29.4863C118.591 29.3992 118.567 29.2523 118.599 29.0455L121.483 14.3448C121.531 14.1384 121.611 13.9914 121.723 13.904C121.835 13.8169 122.027 13.7729 122.3 13.7729ZM126.409 17.609H125.448L124.968 20.1584H125.881C126.217 20.1584 126.51 20.0195 126.758 19.7414C127.007 19.4638 127.13 19.023 127.13 18.4191C127.13 17.8794 126.89 17.609 126.409 17.609Z" fill="#686E79"/>
</svg>
