<svg width="119" height="114" viewBox="0 0 119 114" fill="none" xmlns="http://www.w3.org/2000/svg">
<path d="M101.018 67.6667C101.018 84.7951 69.002 109.264 59.1508 109.264C49.2996 109.264 17.2832 84.7951 17.2832 67.6667C17.2832 43.3416 34.6678 30.9629 59.1508 30.9629C83.6338 30.9629 101.018 43.3416 101.018 67.6667Z" fill="#F29D38"/>
<path d="M81.5335 17.6871C85.6229 10.5906 101.094 6.02276 104.057 7.7366C107.02 9.45045 110.323 26.6871 106.234 33.7835C100.426 43.8617 91.9883 45.5953 84.6248 41.3359C77.2614 37.0765 75.726 27.7652 81.5335 17.6871Z" fill="#F29D38"/>
<path d="M10.1202 32.1462C6.08442 25.1428 9.822 9.6409 12.746 7.94952C15.67 6.25815 32.3466 10.1657 36.3824 17.1692C42.1138 27.1152 40.6342 37.636 33.3672 41.8395C26.1003 46.043 15.8516 42.0922 10.1202 32.1462Z" fill="#F29D38"/>
<path fill-rule="evenodd" clip-rule="evenodd" d="M59.95 52.2969C61.165 52.2969 62.1499 53.4337 62.1499 54.8361L62.1499 90.3859C62.1499 91.7883 61.165 92.9252 59.95 92.9252C58.735 92.9252 57.7501 91.7883 57.7501 90.3859L57.7501 54.8361C57.7501 53.4337 58.735 52.2969 59.95 52.2969Z" fill="#90665E"/>
<path d="M69.8493 105.553C69.8493 108.282 65.4171 110.494 59.9498 110.494C54.4824 110.494 50.0503 108.282 50.0503 105.553C50.0503 102.824 54.4824 100.612 59.9498 100.612C65.4171 100.612 69.8493 102.824 69.8493 105.553Z" fill="black"/>
<path d="M85.2483 44.062C85.2483 49.8232 73.9217 54.4936 59.9496 54.4936C45.9775 54.4936 34.6509 49.8232 34.6509 44.062C34.6509 38.3008 45.9775 33.6304 59.9496 33.6304C73.9217 33.6304 85.2483 38.3008 85.2483 44.062Z" fill="black"/>
<path fill-rule="evenodd" clip-rule="evenodd" d="M63.2707 35.845C63.6338 35.9046 63.8671 36.0933 63.8273 36.2952L62.6486 42.2787H66.2149C66.7039 42.2787 67.1824 42.3717 67.4584 42.601C67.7094 42.8097 67.6914 43.0538 67.529 43.2328L67.4433 43.331C67.4369 43.3383 67.4302 43.3454 67.4232 43.3524L58.6527 52.0735C58.473 52.2522 58.0817 52.338 57.7189 52.2782C57.3561 52.2185 57.1231 52.0299 57.1629 51.8281L58.3416 45.8446H54.7752C54.3337 45.8446 53.6692 45.7802 53.4235 45.4325C53.3188 45.2842 53.344 45.1423 53.3895 45.0406C53.4357 44.9371 53.5171 44.8428 53.5987 44.7647C53.6591 44.707 53.6958 44.6723 53.7166 44.653C53.7212 44.6488 53.7259 44.6445 53.7305 44.6403L62.3369 36.0504C62.5162 35.8714 62.9075 35.7853 63.2707 35.845Z" fill="white"/>
<path d="M84.2613 25.1279C86.161 21.8431 91.92 18.9058 92.857 19.4458C93.7939 19.9858 94.1252 26.4334 92.2255 29.7181C89.5277 34.383 86.5013 35.8038 84.1727 34.4617C81.8441 33.1196 81.5635 29.7927 84.2613 25.1279Z" fill="#90665E"/>
<path d="M22.7122 29.0529C20.8374 25.8113 21.1644 19.4482 22.089 18.9153C23.0137 18.3823 28.6972 21.2812 30.572 24.5228C33.2345 29.1265 32.9576 32.4097 30.6595 33.7343C28.3614 35.0588 25.3747 33.6566 22.7122 29.0529Z" fill="#90665E"/>
<path d="M118.797 59.6812H1.65283V72.8579H6.05261V77.2502H11.0024V81.6424H15.4021V86.0347H42.3508V81.6424H46.7505V77.2502H51.1503V72.8579H56.1001V68.4657H64.3497V72.8579H69.2994V77.2502H73.6992V81.6424H78.099V86.0347H105.598V81.6424H109.997V77.2502H114.397V72.8579H118.797V59.6812Z" fill="black"/>
<path d="M24.3008 72.8916L19.8017 72.8916L19.8017 68.5323L24.3008 68.5323L24.3008 72.8916Z" fill="white"/>
<path d="M19.8179 77.2476L15.3188 77.2476L15.3188 72.8883L19.8179 72.8883L19.8179 77.2476Z" fill="white"/>
<path d="M28.8159 77.2476L24.3169 77.2476L24.3169 72.8883L28.8159 72.8883L28.8159 77.2476Z" fill="white"/>
<path d="M78.3052 72.8916L73.8061 72.8916L73.8061 68.5323L78.3052 68.5323L78.3052 72.8916Z" fill="white"/>
<path d="M87.3032 72.8916L82.8042 72.8916L82.8042 68.5323L87.3032 68.5323L87.3032 72.8916Z" fill="white"/>
<path d="M87.3032 81.6084L82.8042 81.6084L82.8042 77.2491L87.3032 77.2491L87.3032 81.6084Z" fill="white"/>
<path d="M96.3018 81.6084L91.8027 81.6084L91.8027 77.2491L96.3018 77.2491L96.3018 81.6084Z" fill="white"/>
<path d="M33.3149 81.6084L28.8159 81.6084L28.8159 77.2491L33.3149 77.2491L33.3149 81.6084Z" fill="white"/>
<path d="M15.3188 72.8916L10.8198 72.8916L10.8198 68.5323L15.3188 68.5323L15.3188 72.8916Z" fill="white"/>
<path d="M24.3174 81.6084L19.8183 81.6084L19.8183 77.2491L24.3174 77.2491L24.3174 81.6084Z" fill="white"/>
<path d="M82.8042 77.2476L78.3052 77.2476L78.3052 72.8883L82.8042 72.8883L82.8042 77.2476Z" fill="white"/>
<path d="M91.8027 77.2476L87.3037 77.2476L87.3037 72.8883L91.8027 72.8883L91.8027 77.2476Z" fill="white"/>
<path fill-rule="evenodd" clip-rule="evenodd" d="M110.113 35.0358C107.328 39.8509 103.968 43.3224 100.212 45.3441C102.76 49.485 104.512 54.275 105.36 59.6811H100.172C99.3126 54.8386 97.632 50.6589 95.2714 47.1174C95.2379 47.1238 95.2044 47.1301 95.1709 47.1363C94.0488 45.4458 92.7707 43.8908 91.3491 42.4717C96.7846 42.9616 102.195 39.9086 106.363 32.7016C110.392 25.7353 106.661 10.3158 103.742 8.63339C100.823 6.951 85.5808 11.435 81.552 18.4013C77.7663 24.947 77.4658 30.6655 79.7971 34.997C73.9254 32.6254 67.056 31.4331 59.5005 31.4331C50.8018 31.4331 43.0126 33.0135 36.6083 36.1544C39.7387 31.7556 39.8081 25.6167 35.6817 18.4818C31.7697 11.7176 17.1451 7.32488 13.9312 8.76646C13.8507 8.7777 13.7932 8.78903 13.7555 8.79731C13.7295 8.8258 13.6907 8.87001 13.6405 8.93434C10.7834 10.9983 7.28471 25.8323 11.1957 32.5946C15.9033 40.7346 22.217 43.5051 28.3355 41.81C23.5341 46.3153 20.2507 52.2784 18.9185 59.6811H14.3961C15.1862 54.6462 16.76 50.1456 19.031 46.2061C14.53 44.4036 10.5218 40.6249 7.28966 35.0362C5.88238 32.6029 5.23944 29.6085 5.03188 26.6354C4.82212 23.631 5.04416 20.4567 5.51647 17.5208C5.98842 14.5871 6.72394 11.8068 7.58798 9.58763C8.01888 8.48091 8.50336 7.45765 9.03668 6.60629C9.53149 5.81641 10.2294 4.90943 11.1876 4.35715C12.1458 3.80488 13.2816 3.65498 14.2142 3.62214C15.2195 3.58674 16.3494 3.67951 17.5249 3.86034C19.8821 4.22294 22.6618 4.97717 25.4428 6.03601C28.2259 7.09565 31.0906 8.49081 33.5921 10.1744C36.0675 11.8403 38.3437 13.8934 39.751 16.3267C42.2087 20.5762 43.5341 24.6905 43.7263 28.5252C48.7137 27.233 54.1431 26.5968 59.8782 26.5968C64.7362 26.5968 69.3749 27.0533 73.7115 27.9784C73.9968 24.3002 75.3105 20.3747 77.6519 16.3263C79.0592 13.893 81.3354 11.8399 83.8108 10.1739C86.3123 8.49037 89.177 7.09521 91.9601 6.03557C94.7411 4.97674 97.5207 4.2225 99.8779 3.8599C101.053 3.67907 102.183 3.5863 103.189 3.6217C104.121 3.65455 105.257 3.80444 106.215 4.35672C107.173 4.90899 107.871 5.81597 108.366 6.60585C108.9 7.45721 109.384 8.48048 109.815 9.58719C110.679 11.8064 111.414 14.5866 111.886 17.5204C112.359 20.4563 112.581 23.6305 112.371 26.635C112.163 29.608 111.521 32.6025 110.113 35.0358ZM21.5986 86.0346C24.7356 90.1834 28.5634 94.1984 32.5723 97.8002C37.4845 102.214 42.741 106.072 47.4641 108.843C49.8249 110.228 52.0902 111.364 54.1417 112.16C56.1511 112.94 58.1354 113.467 59.8782 113.467C61.6209 113.467 63.6053 112.94 65.6146 112.16C67.6661 111.364 69.9314 110.228 72.2923 108.843C77.0153 106.072 82.2718 102.214 87.1841 97.8002C91.1929 94.1984 95.0208 90.1834 98.1577 86.0346H91.7812C84.55 94.5537 74.3794 102.297 66.8488 106.001C65.7439 106.561 64.7085 107.029 63.7594 107.398C61.9897 108.085 60.6948 108.357 59.8782 108.357C59.6319 108.357 59.3421 108.332 59.0088 108.279C52.341 107.782 37.0593 97.6266 27.2197 86.0346H21.5986Z" fill="black"/>
</svg>
