<svg width="102" height="16" viewBox="0 0 102 16" fill="none" xmlns="http://www.w3.org/2000/svg">
<path d="M19.9187 6.36426L19.3668 6.36426L19.3668 5.82774L19.9187 5.82774L19.9187 6.36426Z" fill="black"/>
<path d="M20.483 4.76709L19.9311 4.76709L19.9311 4.23057L20.483 4.23057L20.483 4.76709Z" fill="black"/>
<path d="M19.3544 4.76709L18.8025 4.76709L18.8025 4.23057L19.3544 4.23057L19.3544 4.76709Z" fill="black"/>
<path d="M19.9062 5.2998L19.3544 5.2998L19.3544 4.76329L19.9063 4.76329L19.9062 5.2998Z" fill="black"/>
<path d="M19.9062 7.45361L19.3544 7.45361L19.3544 6.91709L19.9063 6.91709L19.9062 7.45361Z" fill="black"/>
<path d="M20.3511 5.83203L19.9311 5.83203L19.9311 5.29551L20.483 5.29551L20.3511 5.83203Z" fill="black"/>
<path d="M19.3544 5.83203L18.8025 5.83203L18.8025 5.29551L19.3544 5.29551L19.3544 5.83203Z" fill="black"/>
<path d="M18.8025 5.30762L18.2506 5.30762L18.2506 4.7711L18.8025 4.7711L18.8025 5.30762Z" fill="black"/>
<path d="M53.0544 6.36426L52.5026 6.36426L52.5026 5.82774L53.0544 5.82774L53.0544 6.36426Z" fill="black"/>
<path d="M52.4916 6.91895L51.9397 6.91895L51.9397 6.38243L52.4916 6.38243L52.4916 6.91895Z" fill="black"/>
<path d="M53.6188 4.76709L53.0669 4.76709L53.0669 4.23057L53.6188 4.23057L53.6188 4.76709Z" fill="black"/>
<path d="M52.4901 4.76709L51.9382 4.76709L51.9382 4.23057L52.4901 4.23057L52.4901 4.76709Z" fill="black"/>
<path d="M51.3864 4.76709L50.8345 4.76709L50.8345 4.23057L51.3864 4.23057L51.3864 4.76709Z" fill="black"/>
<path d="M53.042 5.2998L52.4901 5.2998L52.4901 4.76329L53.042 4.76329L53.042 5.2998Z" fill="black"/>
<path d="M53.042 7.45361L52.4901 7.45361L52.4901 6.91709L53.042 6.91709L53.042 7.45361Z" fill="black"/>
<path d="M53.4868 5.83203L53.0669 5.83203L53.0669 5.29551L53.6188 5.29551L53.4868 5.83203Z" fill="black"/>
<path d="M52.4901 5.83203L51.9382 5.83203L51.9382 5.29551L52.4901 5.29551L52.4901 5.83203Z" fill="black"/>
<path d="M51.9382 5.30762L51.3863 5.30762L51.3863 4.7711L51.9382 4.7711L51.9382 5.30762Z" fill="black"/>
<path d="M24.8328 12.3066L24.2414 12.3066L24.2414 12.8432L24.8328 12.8432L24.8328 12.3066Z" fill="black"/>
<path d="M25.4374 13.9038L24.8461 13.9038L24.8461 14.4403L25.4374 14.4403L25.4374 13.9038Z" fill="black"/>
<path d="M24.228 13.9038L23.6367 13.9038L23.6367 14.4403L24.228 14.4403L24.228 13.9038Z" fill="black"/>
<path d="M24.8195 13.3711L24.2281 13.3711L24.2281 13.9076L24.8195 13.9076L24.8195 13.3711Z" fill="black"/>
<path d="M23.598 13.3711L23.0067 13.3711L23.0067 13.9076L23.598 13.9076L23.598 13.3711Z" fill="black"/>
<path d="M25.718 12.8389L24.846 12.8389L24.846 13.3754L25.4373 13.3754L25.718 12.8389Z" fill="black"/>
<path d="M20.4999 4.18784H23.2668L22.9413 5.61593H22.982C23.9179 4.47875 25.1454 3.91016 26.6645 3.91016C28.7125 3.91016 29.7366 4.82916 29.7366 6.66716C29.7366 6.77294 29.723 6.91179 29.6959 7.08369C29.6688 7.24236 29.6349 7.40765 29.5942 7.57955C29.567 7.75145 29.5331 7.91674 29.4924 8.07541C29.4653 8.22087 29.445 8.33987 29.4314 8.43244L28.1293 14.4423H25.2403L26.5221 8.43244C26.5492 8.27376 26.5831 8.06219 26.6238 7.79773C26.678 7.53327 26.7052 7.32831 26.7052 7.18286C26.7052 6.87873 26.556 6.62749 26.2576 6.42915C25.9727 6.2308 25.6608 6.13163 25.3217 6.13163C24.8877 6.13163 24.5011 6.21758 24.162 6.38948C23.8365 6.54815 23.5517 6.75972 23.3075 7.02418C23.077 7.28864 22.8803 7.59277 22.7175 7.93657C22.5683 8.28037 22.453 8.63078 22.3717 8.9878L21.1917 14.4423H18.323L20.4999 4.18784Z" fill="black"/>
<path d="M40.7092 14.4423H37.9423L38.2678 13.0142H38.2271C37.2913 14.1382 36.0638 14.7002 34.5447 14.7002C32.4966 14.7002 31.4726 13.7878 31.4726 11.963C31.4726 11.8572 31.4794 11.725 31.4929 11.5663C31.5201 11.3944 31.5472 11.2225 31.5743 11.0506C31.615 10.8787 31.6489 10.72 31.676 10.5746C31.7167 10.4159 31.7506 10.2903 31.7778 10.1977L33.0798 4.18784H35.9688L34.6871 10.1977C34.66 10.277 34.6328 10.3762 34.6057 10.4952C34.5922 10.601 34.5718 10.7134 34.5447 10.8324C34.5311 10.9514 34.5176 11.0704 34.504 11.1894C34.504 11.2952 34.504 11.3812 34.504 11.4473C34.504 11.7514 34.6464 12.0027 34.9312 12.201C35.2296 12.3993 35.5484 12.4985 35.8875 12.4985C36.3215 12.4985 36.7013 12.4192 37.0268 12.2605C37.3659 12.0886 37.6507 11.8704 37.8813 11.606C38.1254 11.3415 38.3221 11.0374 38.4713 10.6936C38.634 10.3498 38.7561 9.99937 38.8375 9.64234L40.0175 4.18784H42.9065L40.7092 14.4423Z" fill="black"/>
<path d="M47.7611 5.29857H49.8363L49.3887 7.18286H47.3338L46.5063 11.1696C46.4791 11.2754 46.4588 11.3746 46.4452 11.4671C46.4317 11.5465 46.4249 11.606 46.4249 11.6456C46.4249 11.8308 46.452 11.9762 46.5063 12.082C46.5741 12.1746 46.6555 12.2473 46.7504 12.3002C46.8453 12.3531 46.9471 12.3861 47.0556 12.3993C47.1776 12.3993 47.2929 12.3993 47.4014 12.3993C47.7541 12.3993 48.1 12.3795 48.439 12.3398L47.9508 14.5018C47.6524 14.5283 47.354 14.5481 47.0556 14.5613C46.7572 14.5878 46.452 14.601 46.14 14.601C45.801 14.601 45.4619 14.5679 45.1228 14.5018C44.7973 14.4489 44.4989 14.3497 44.2276 14.2043C43.9699 14.0456 43.7597 13.834 43.5969 13.5696C43.4477 13.3051 43.3799 12.9613 43.3935 12.5382C43.3935 12.406 43.407 12.2605 43.4341 12.1018C43.4613 11.9299 43.4952 11.7514 43.5359 11.5663L44.4652 7.18286H44.4387L44.8863 5.29857H44.8721L45.184 4.18784H48.073L47.7611 5.29857Z" fill="black"/>
<path d="M58.1133 7.18286C58.0998 6.7465 57.9641 6.40931 57.7064 6.1713C57.4623 5.92006 57.0554 5.79444 56.4857 5.79444C55.9703 5.79444 55.5431 5.87378 55.204 6.03245C54.8785 6.17791 54.7157 6.43576 54.7157 6.806C54.7157 7.03079 54.8106 7.22253 55.0005 7.3812C55.204 7.53988 55.5499 7.69194 56.0381 7.8374L57.4826 8.29359C57.876 8.4126 58.2354 8.55144 58.5609 8.71012C58.9 8.8688 59.1916 9.06714 59.4358 9.30516C59.6935 9.52995 59.8901 9.80102 60.0258 10.1184C60.175 10.4357 60.2496 10.806 60.2496 11.2291C60.2496 11.8638 60.1004 12.406 59.802 12.8555C59.5171 13.2919 59.1374 13.6489 58.6627 13.9266C58.1879 14.2043 57.6522 14.4026 57.0554 14.5216C56.4586 14.6407 55.855 14.7002 55.2447 14.7002C54.7293 14.7002 54.2071 14.6473 53.6781 14.5415C53.1491 14.4357 52.6676 14.2638 52.2336 14.0258C51.8131 13.7745 51.4673 13.4506 51.196 13.0539C50.9247 12.644 50.7891 12.1349 50.7891 11.5266V11.1101H53.4543V11.4473C53.4543 11.6853 53.5154 11.8903 53.6374 12.0622C53.7595 12.2341 53.9155 12.3795 54.1054 12.4985C54.3088 12.6043 54.5326 12.6903 54.7767 12.7564C55.0344 12.8093 55.2854 12.8357 55.5295 12.8357C55.7465 12.8357 55.9635 12.8159 56.1806 12.7762C56.3976 12.7365 56.5942 12.6704 56.7706 12.5779C56.9469 12.4721 57.0893 12.3465 57.1978 12.201C57.3063 12.0423 57.3606 11.844 57.3606 11.606C57.3606 11.2489 57.2656 10.9977 57.0757 10.8523C56.8858 10.7068 56.6349 10.5812 56.323 10.4754L54.1054 9.78119C53.7391 9.66218 53.4136 9.53656 53.1288 9.40433C52.8575 9.2721 52.6202 9.10681 52.4167 8.90846C52.2268 8.71012 52.0776 8.47211 51.9691 8.19442C51.8742 7.91674 51.8267 7.57294 51.8267 7.16302C51.8267 6.55476 51.9691 6.04568 52.254 5.63576C52.5523 5.22585 52.9321 4.89527 53.3933 4.64403C53.8544 4.37957 54.3563 4.19445 54.8988 4.08867C55.4549 3.96966 55.9839 3.91016 56.4857 3.91016C57.0554 3.91016 57.6047 3.95644 58.1337 4.049C58.6626 4.14156 59.1238 4.31346 59.5171 4.5647C59.924 4.80271 60.2428 5.13329 60.4734 5.55642C60.7039 5.97956 60.8124 6.52171 60.7989 7.18286H58.1133Z" fill="black"/>
<path d="M66.2453 5.41758H68.3205L67.8729 7.30187H65.8181L64.9861 11.1696C64.9589 11.2754 64.9386 11.3746 64.925 11.4671C64.9115 11.5465 64.9047 11.606 64.9047 11.6456C64.9047 11.8308 64.9318 11.9762 64.9861 12.082C65.0539 12.1746 65.1353 12.2473 65.2302 12.3002C65.3252 12.3531 65.4269 12.3861 65.5354 12.3993C65.6575 12.3993 65.7728 12.3993 65.8813 12.3993C66.2339 12.3993 66.5798 12.3795 66.9189 12.3398L66.4306 14.5018C66.1322 14.5283 65.8338 14.5481 65.5354 14.5613C65.237 14.5878 64.9318 14.601 64.6199 14.601C64.2808 14.601 63.9417 14.5679 63.6026 14.5018C63.2771 14.4489 62.9787 14.3497 62.7074 14.2043C62.4497 14.0456 62.2395 13.834 62.0767 13.5696C61.9275 13.3051 61.8597 12.9613 61.8733 12.5382C61.8733 12.406 61.8868 12.2605 61.914 12.1018C61.9411 11.9299 61.975 11.7514 62.0157 11.5663L62.9494 7.30187H62.9117L63.3593 5.41758H63.3563L63.6683 4.30685H66.5573L66.2453 5.41758Z" fill="black"/>
<path d="M70.2527 7.30187C70.3476 6.65394 70.5511 6.1184 70.863 5.69527C71.175 5.25891 71.5547 4.9085 72.0023 4.64403C72.4499 4.37957 72.9518 4.19445 73.5079 4.08867C74.064 3.96966 74.6404 3.91016 75.2372 3.91016C75.7119 3.91016 76.207 3.94321 76.7224 4.00933C77.2378 4.07544 77.7125 4.20767 78.1465 4.40602C78.5806 4.59114 78.9332 4.86222 79.2045 5.21924C79.4893 5.56304 79.625 6.02584 79.6114 6.60766C79.6114 7.09691 79.5368 7.67211 79.3876 8.33326L78.4517 12.4589C78.3975 12.644 78.3568 12.8754 78.3296 13.1531C78.3161 13.4175 78.3093 13.6489 78.3093 13.8473C78.3093 14.0192 78.3432 14.2175 78.411 14.4423H75.522V13.4307C75.1287 13.8671 74.6472 14.1911 74.0775 14.4026C73.5079 14.601 72.9179 14.7002 72.3075 14.7002C71.7378 14.7002 71.236 14.6274 70.802 14.482C70.3815 14.3365 70.0289 14.1448 69.744 13.9068C69.4592 13.6555 69.249 13.3712 69.1133 13.0539C68.9777 12.7233 68.9099 12.3795 68.9099 12.0225C68.9099 11.0308 69.2558 10.2374 69.9475 9.64234C70.6528 9.04731 71.6429 8.67706 72.9179 8.53161C73.596 8.45227 74.186 8.39277 74.6879 8.3531C75.1897 8.31343 75.6034 8.25392 75.9289 8.17459C76.268 8.08202 76.5189 7.95641 76.6817 7.79773C76.8445 7.62583 76.9258 7.37459 76.9258 7.04402C76.9258 6.77956 76.8648 6.56799 76.7427 6.40931C76.6207 6.25063 76.4647 6.12501 76.2748 6.03245C76.0985 5.93989 75.9018 5.88039 75.6848 5.85394C75.4813 5.81427 75.2847 5.79444 75.0948 5.79444C74.5794 5.79444 74.1182 5.92006 73.7113 6.1713C73.3044 6.40931 73.0535 6.78617 72.9586 7.30187H70.2527ZM76.3562 9.52334C75.99 9.73491 75.5966 9.86713 75.1762 9.92003C74.7557 9.9597 74.3352 9.99275 73.9148 10.0192C73.6435 10.0456 73.379 10.0919 73.1213 10.158C72.8636 10.2109 72.633 10.2969 72.4296 10.4159C72.2397 10.5349 72.0837 10.7002 71.9616 10.9118C71.8396 11.1101 71.7785 11.368 71.7785 11.6853C71.7785 12.0688 71.9345 12.3597 72.2465 12.558C72.572 12.7431 72.945 12.8357 73.3655 12.8357C73.813 12.8357 74.186 12.7696 74.4844 12.6374C74.7964 12.4919 75.0541 12.3134 75.2575 12.1018C75.4746 11.877 75.6441 11.6258 75.7662 11.3481C75.8882 11.0704 75.99 10.7927 76.0713 10.5151L76.3562 9.52334Z" fill="black"/>
<path d="M87.8759 7.18286C87.8624 6.7465 87.7267 6.40931 87.469 6.1713C87.2249 5.92006 86.818 5.79444 86.2483 5.79444C85.7329 5.79444 85.3057 5.87378 84.9666 6.03245C84.6411 6.17791 84.4783 6.43576 84.4783 6.806C84.4783 7.03079 84.5732 7.22253 84.7631 7.3812C84.9666 7.53988 85.3125 7.69194 85.8007 7.8374L87.2452 8.29359C87.6386 8.4126 87.998 8.55144 88.3235 8.71012C88.6626 8.8688 88.9542 9.06714 89.1984 9.30516C89.4561 9.52995 89.6527 9.80102 89.7884 10.1184C89.9376 10.4357 90.0122 10.806 90.0122 11.2291C90.0122 11.8638 89.863 12.406 89.5646 12.8555C89.2797 13.2919 88.9 13.6489 88.4253 13.9266C87.9505 14.2043 87.4148 14.4026 86.818 14.5216C86.2212 14.6407 85.6176 14.7002 85.0073 14.7002C84.4919 14.7002 83.9697 14.6473 83.4407 14.5415C82.9117 14.4357 82.4302 14.2638 81.9962 14.0258C81.5757 13.7745 81.2299 13.4506 80.9586 13.0539C80.6873 12.644 80.5517 12.1349 80.5517 11.5266V11.1101H83.2169V11.4473C83.2169 11.6853 83.2779 11.8903 83.4 12.0622C83.5221 12.2341 83.6781 12.3795 83.868 12.4985C84.0714 12.6043 84.2952 12.6903 84.5393 12.7564C84.797 12.8093 85.048 12.8357 85.2921 12.8357C85.5091 12.8357 85.7261 12.8159 85.9432 12.7762C86.1602 12.7365 86.3568 12.6704 86.5332 12.5779C86.7095 12.4721 86.8519 12.3465 86.9604 12.201C87.0689 12.0423 87.1232 11.844 87.1232 11.606C87.1232 11.2489 87.0282 10.9977 86.8383 10.8523C86.6484 10.7068 86.3975 10.5812 86.0856 10.4754L83.868 9.78119C83.5017 9.66218 83.1762 9.53656 82.8914 9.40433C82.6201 9.2721 82.3828 9.10681 82.1793 8.90846C81.9894 8.71012 81.8402 8.47211 81.7317 8.19442C81.6368 7.91674 81.5893 7.57294 81.5893 7.16302C81.5893 6.55476 81.7317 6.04568 82.0166 5.63576C82.315 5.22585 82.6947 4.89527 83.1559 4.64403C83.617 4.37957 84.1189 4.19445 84.6614 4.08867C85.2175 3.96966 85.7465 3.91016 86.2483 3.91016C86.818 3.91016 87.3673 3.95644 87.8963 4.049C88.4252 4.14156 88.8864 4.31346 89.2797 4.5647C89.6866 4.80271 90.0054 5.13329 90.236 5.55642C90.4665 5.97956 90.575 6.52171 90.5615 7.18286H87.8759Z" fill="black"/>
<path d="M93.1454 4.30465H96.0344L95.4082 7.41868H95.4489C95.5574 7.27323 95.7134 7.11455 95.9168 6.94265C96.1203 6.77075 96.3644 6.61207 96.6492 6.46662C96.9341 6.32117 97.2664 6.20216 97.6461 6.1096C98.0259 6.00381 98.4532 5.95092 98.9279 5.95092C100.976 5.95092 102 6.86992 102 8.70792C102 8.81371 101.986 8.95255 101.959 9.12445C101.932 9.28313 101.898 9.44842 101.858 9.62031C101.83 9.79221 101.797 9.9575 101.756 10.1162C101.729 10.2616 101.708 10.3806 101.695 10.4732L100.847 14.4423H97.958L98.7855 10.4732C98.8126 10.3145 98.8465 10.103 98.8872 9.83849C98.9414 9.57403 98.9686 9.36908 98.9686 9.22362C98.9686 8.91949 98.8194 8.66826 98.521 8.46991C98.2361 8.27156 97.9242 8.17239 97.5851 8.17239C97.1511 8.17239 96.7645 8.25834 96.4254 8.43024C96.0999 8.58892 95.8151 8.80049 95.5709 9.06495C95.3404 9.32941 95.1437 9.63354 94.9809 9.97734C94.8317 10.3211 94.7164 10.6715 94.6351 11.0286L93.9094 14.4423H91.0407L93.1454 4.30465Z" fill="black"/>
<path d="M98.2043 13.9038L97.613 13.9038L97.613 14.4403L98.2043 14.4403L98.2043 13.9038Z" fill="black"/>
<path d="M96.9951 13.9038L96.4038 13.9038L96.4038 14.4403L96.9951 14.4403L96.9951 13.9038Z" fill="black"/>
<path d="M97.5864 13.3711L96.9951 13.3711L96.9951 13.9076L97.5864 13.9076L97.5864 13.3711Z" fill="black"/>
<path d="M98.4025 12.8389L97.6131 12.8389L97.6131 13.3754L98.2044 13.3754L98.4025 12.8389Z" fill="black"/>
<path fill-rule="evenodd" clip-rule="evenodd" d="M8.62941 7.59961C8.7995 7.59961 8.93738 7.75459 8.93738 7.94577L8.93738 12.7921C8.93738 12.9832 8.7995 13.1382 8.62941 13.1382C8.45933 13.1382 8.32145 12.9832 8.32145 12.7921L8.32145 7.94577C8.32145 7.75459 8.45933 7.59961 8.62941 7.59961Z" fill="black"/>
<path d="M10.0153 14.8597C10.0153 15.2317 9.39487 15.5333 8.62949 15.5333C7.86412 15.5333 7.24365 15.2317 7.24365 14.8597C7.24365 14.4876 7.86412 14.186 8.62949 14.186C9.39487 14.186 10.0153 14.4876 10.0153 14.8597Z" fill="black"/>
<path fill-rule="evenodd" clip-rule="evenodd" d="M8.62949 7.89885C10.5855 7.89885 12.1711 7.26216 12.1711 6.47677C12.1711 5.69137 10.5855 5.05469 8.62949 5.05469C6.67352 5.05469 5.08789 5.69137 5.08789 6.47677C5.08789 7.26216 6.67352 7.89885 8.62949 7.89885ZM9.17232 5.41805C9.17788 5.39053 9.14523 5.3648 9.09439 5.35667C9.04356 5.34854 8.98877 5.36028 8.96367 5.38468L7.75885 6.5557L7.75691 6.55743L7.74041 6.57265C7.72898 6.58329 7.71759 6.59615 7.71111 6.61026C7.70474 6.62413 7.70121 6.64348 7.71587 6.66368C7.75027 6.71109 7.8433 6.71986 7.90511 6.71986H8.40436L8.23935 7.53556C8.23379 7.56307 8.26641 7.58878 8.3172 7.59693C8.36799 7.60507 8.42276 7.59338 8.44792 7.56902L9.6757 6.38013L9.67852 6.3772L9.69052 6.36382C9.71326 6.33941 9.71578 6.30614 9.68063 6.27769C9.64201 6.24642 9.57502 6.23375 9.50656 6.23375H9.00731L9.17232 5.41805Z" fill="black"/>
<path d="M12.033 3.89565C12.2989 3.44786 13.1051 3.04743 13.2363 3.12105C13.3674 3.19467 13.4138 4.07363 13.1479 4.52141C12.7702 5.15734 12.3465 5.35104 12.0205 5.16807C11.6946 4.98511 11.6553 4.53158 12.033 3.89565Z" fill="black"/>
<path d="M3.41652 4.43085C3.15407 3.98893 3.19984 3.1215 3.32929 3.04884C3.45874 2.97619 4.25437 3.37137 4.51682 3.81329C4.88955 4.44088 4.85079 4.88847 4.52907 5.06903C4.20736 5.2496 3.78925 5.05844 3.41652 4.43085Z" fill="black"/>
<path fill-rule="evenodd" clip-rule="evenodd" d="M16.8675 8.60596H0.468384V10.4023H1.08431V11.001H1.77724V11.5998H2.39317V12.1986H6.16574V11.5998H6.78167V11.001H7.3976V10.4023H8.09052V9.8035H9.24539V10.4023H9.93831V11.001H10.5542V11.5998H11.1702V12.1986H15.0197V11.5998H15.6357V11.001H16.2516V10.4023H16.8675V8.60596ZM3.01136 10.4069H3.63892V9.81263H3.0091L3.0091 10.4064H2.38153V11.0007H3.01136V10.4069ZM4.27102 11.0007H3.6412V10.4064H4.27102V11.0007ZM10.5693 10.4069H11.1991V9.81263H10.5693V10.4069ZM12.4587 10.4069H11.8289V9.81263H12.4587V10.4069ZM11.8289 11.5952H12.4587V11.0009H11.8289V11.5952ZM13.7184 11.5952H13.0886V11.0009H13.7184V11.5952ZM4.271 11.5952H4.90083V11.0009H4.271L4.271 11.5952ZM2.38152 10.4069H1.75169V9.81263H2.38152V10.4069ZM3.01136 11.5952H3.64119V11.0009H3.01136L3.01136 11.5952ZM11.8289 11.0007H11.1991V10.4064H11.8289V11.0007ZM12.4588 11.0007H13.0886V10.4064H12.4588V11.0007Z" fill="black"/>
<path fill-rule="evenodd" clip-rule="evenodd" d="M15.6518 5.24641C15.262 5.90282 14.7915 6.37608 14.2657 6.65167C14.6225 7.21618 14.8677 7.86918 14.9865 8.60617H14.2602C14.1398 7.94601 13.9046 7.37622 13.5741 6.89342L13.56 6.89601C13.4029 6.66557 13.224 6.45359 13.025 6.26014C13.7859 6.32693 14.5433 5.91074 15.1268 4.92824C15.6908 3.97857 15.1685 1.87651 14.7599 1.64716C14.3512 1.41781 12.2175 2.02909 11.6535 2.97876C11.1235 3.87111 11.0814 4.65068 11.4078 5.24116C10.5858 4.91786 9.62416 4.75532 8.56644 4.75532C7.34869 4.75532 6.25827 4.97077 5.36171 5.39895C5.79996 4.7993 5.80968 3.9624 5.23201 2.98973C4.68442 2.06769 2.63738 1.46887 2.18725 1.66525C2.17596 1.66679 2.1679 1.66833 2.16263 1.66946C2.15898 1.67334 2.15357 1.67936 2.14654 1.68811C1.74655 1.96922 1.25664 3.9917 1.80419 4.91365C2.46323 6.02334 3.3471 6.40101 4.20363 6.16993C3.53148 6.78411 3.07183 7.59701 2.88533 8.60617H2.25231C2.36292 7.91978 2.58324 7.30624 2.90117 6.76919C2.27105 6.52346 1.70993 6.00833 1.25746 5.24646C1.06045 4.91474 0.970448 4.50652 0.941392 4.10123C0.912027 3.69165 0.94311 3.25892 1.00923 2.85868C1.0753 2.45875 1.17826 2.07973 1.29922 1.7772C1.35954 1.62633 1.42737 1.48683 1.50203 1.37077C1.5713 1.26309 1.669 1.13945 1.80314 1.06416C1.93728 0.988873 2.09628 0.968438 2.22684 0.963961C2.36756 0.959134 2.52574 0.971782 2.69031 0.996433C3.0203 1.04586 3.40942 1.14868 3.79874 1.29303C4.18835 1.43748 4.58938 1.62768 4.93957 1.85719C5.2861 2.0843 5.60476 2.36419 5.80176 2.6959C6.14582 3.27523 6.33138 3.83611 6.35827 4.35888C7.05647 4.18273 7.81653 4.09599 8.61939 4.09599C9.29947 4.09599 9.94884 4.15823 10.5559 4.28433C10.5959 3.78291 10.7798 3.24775 11.1075 2.69585C11.3045 2.36413 11.6232 2.08424 11.9697 1.85713C12.3199 1.62762 12.721 1.43743 13.1106 1.29297C13.4999 1.14863 13.889 1.04581 14.219 0.996378C14.3836 0.971727 14.5417 0.959079 14.6825 0.963905C14.813 0.968383 14.972 0.988817 15.1062 1.06411C15.2403 1.13939 15.338 1.26304 15.4073 1.37072C15.4819 1.48678 15.5498 1.62627 15.6101 1.77715C15.731 2.07968 15.834 2.45869 15.9001 2.85863C15.9662 3.25887 15.9973 3.69159 15.9679 4.10117C15.9389 4.50647 15.8489 4.91469 15.6518 5.24641ZM3.26058 12.1988C3.69972 12.7644 4.23559 13.3117 4.7968 13.8027C5.48447 14.4044 6.22033 14.9303 6.88152 15.3081C7.21202 15.4969 7.52914 15.6518 7.81633 15.7604C8.09763 15.8667 8.37541 15.9385 8.61939 15.9385C8.86336 15.9385 9.14115 15.8667 9.42244 15.7604C9.70963 15.6518 10.0268 15.4969 10.3573 15.3081C11.0184 14.9303 11.7543 14.4044 12.442 13.8027C13.0032 13.3117 13.5391 12.7644 13.9782 12.1988H13.0855C12.0735 13.3598 10.6503 14.4151 9.59621 14.9202C9.44116 14.9968 9.29587 15.0608 9.16272 15.1111C8.91498 15.2048 8.7337 15.2418 8.61939 15.2418C8.58498 15.2418 8.5445 15.2385 8.49796 15.2312C7.5647 15.1639 5.42502 13.7793 4.0474 12.1988H3.26058Z" fill="black"/>
<path d="M93.1295 4.76172L92.5776 4.76172L92.5776 4.2252L93.4197 4.2252L93.1295 4.76172Z" fill="black"/>
<path d="M92.0256 4.76172L91.4737 4.76172L91.4737 4.2252L92.0256 4.2252L92.0256 4.76172Z" fill="black"/>
<path d="M93.1295 5.82666L92.5776 5.82666L92.5776 5.29014L93.1295 5.29014L93.1295 5.82666Z" fill="black"/>
<path d="M92.5775 5.30225L92.0256 5.30225L92.0256 4.76573L92.5775 4.76573L92.5775 5.30225Z" fill="black"/>
</svg>
