<svg width="301" height="68" viewBox="0 0 301 68" fill="none" xmlns="http://www.w3.org/2000/svg">
<path d="M8.28223 9.94727L5.85295 9.94727L5.85295 7.44626L8.28223 7.44626L8.28223 9.94727Z" fill="url(#paint0_linear_1741_3684)"/>
<path d="M10.7656 2.50098L8.33635 2.50098L8.33635 -3.21603e-05L10.7656 -3.19481e-05L10.7656 2.50098Z" fill="url(#paint1_linear_1741_3684)"/>
<path d="M5.79785 2.50098L3.36857 2.50098L3.36857 -3.21603e-05L5.79785 -3.19481e-05L5.79785 2.50098Z" fill="url(#paint2_linear_1741_3684)"/>
<path d="M8.22754 4.98438L5.79826 4.98437L5.79826 2.48337L8.22754 2.48337L8.22754 4.98438Z" fill="url(#paint3_linear_1741_3684)"/>
<path d="M8.22754 15.0249L5.79826 15.0249L5.79826 12.5239L8.22754 12.5239L8.22754 15.0249Z" fill="url(#paint4_linear_1741_3684)"/>
<path d="M10.1848 7.46631L8.33635 7.46631L8.33635 4.9653L10.7656 4.9653L10.1848 7.46631Z" fill="url(#paint5_linear_1741_3684)"/>
<path d="M5.79785 7.46631L3.36857 7.46631L3.36857 4.9653L5.79785 4.9653L5.79785 7.46631Z" fill="url(#paint6_linear_1741_3684)"/>
<path d="M3.36914 5.021L0.939862 5.021L0.939862 2.51999L3.36914 2.51999L3.36914 5.021Z" fill="url(#paint7_linear_1741_3684)"/>
<path d="M79.8313 53.3309H69.9999L71.1565 47.953H71.0119C67.6866 52.1856 63.3251 54.3019 57.9275 54.3019C50.6503 54.3019 47.0117 50.866 47.0117 43.9942C47.0117 43.5958 47.0358 43.0979 47.084 42.5003C47.1804 41.853 47.2768 41.2057 47.3732 40.5583C47.5177 39.911 47.6382 39.3134 47.7346 38.7657C47.8792 38.1681 47.9997 37.6951 48.0961 37.3465L52.7226 14.7144H62.9878L58.4335 37.3465C58.3371 37.6453 58.2407 38.0187 58.1443 38.4669C58.0961 38.8653 58.0239 39.2885 57.9275 39.7367C57.8793 40.1848 57.8311 40.633 57.7829 41.0812C57.7829 41.4795 57.7829 41.8032 57.7829 42.0522C57.7829 43.1975 58.2889 44.1436 59.301 44.8905C60.3612 45.6375 61.4938 46.0109 62.6986 46.0109C64.2408 46.0109 65.5902 45.7122 66.7468 45.1146C67.9516 44.4673 68.9637 43.6456 69.783 42.6497C70.6505 41.6538 71.3493 40.5085 71.8794 39.2138C72.4577 37.9191 72.8914 36.5996 73.1806 35.2551L77.3734 14.7144H87.6386L79.8313 53.3309Z" fill="url(#paint8_linear_1741_3684)"/>
<path d="M141.543 26.0134C141.495 24.3713 141.013 23.1024 140.097 22.2067C139.23 21.2613 137.784 20.7886 135.76 20.7886C133.928 20.7886 132.41 21.0871 131.205 21.6843C130.049 22.2316 129.47 23.202 129.47 24.5952C129.47 25.4412 129.808 26.1627 130.482 26.7598C131.205 27.3569 132.434 27.9292 134.169 28.4765L139.302 30.1933C140.7 30.6411 141.977 31.1636 143.134 31.7607C144.339 32.3578 145.375 33.1042 146.242 33.9999C147.158 34.8458 147.857 35.8659 148.339 37.0602C148.869 38.2544 149.134 39.6477 149.134 41.24C149.134 43.6285 148.604 45.6687 147.544 47.3605C146.532 49.0026 145.182 50.3461 143.495 51.3911C141.808 52.4361 139.905 53.1825 137.784 53.6303C135.663 54.0782 133.519 54.3021 131.35 54.3021C129.518 54.3021 127.663 54.103 125.783 53.7049C123.904 53.3069 122.193 52.66 120.65 51.7643C119.156 50.8189 117.927 49.5997 116.963 48.1069C116 46.5644 115.518 44.6486 115.518 42.3596V40.7922H124.988V42.0611C124.988 42.9567 125.205 43.728 125.639 44.3749C126.072 45.0218 126.627 45.5692 127.301 46.017C128.024 46.4151 128.82 46.7385 129.687 46.9873C130.603 47.1864 131.494 47.2859 132.362 47.2859C133.133 47.2859 133.904 47.2113 134.675 47.062C135.447 46.9127 136.145 46.6639 136.772 46.3156C137.398 45.9175 137.905 45.4448 138.29 44.8974C138.676 44.3003 138.868 43.5539 138.868 42.6582C138.868 41.3147 138.531 40.3692 137.856 39.8219C137.182 39.2745 136.29 38.8018 135.181 38.4037L127.301 35.7913C126 35.3434 124.843 34.8707 123.831 34.3731C122.867 33.8755 122.024 33.2535 121.301 32.5071C120.626 31.7607 120.096 30.865 119.711 29.8201C119.373 28.7751 119.205 27.4813 119.205 25.9388C119.205 23.6498 119.711 21.734 120.723 20.1915C121.783 18.6489 123.133 17.4049 124.771 16.4594C126.41 15.4642 128.193 14.7676 130.121 14.3695C132.097 13.9217 133.977 13.6978 135.76 13.6978C137.784 13.6978 139.736 13.8719 141.616 14.2202C143.495 14.5686 145.134 15.2154 146.532 16.1609C147.977 17.0566 149.11 18.3006 149.929 19.8929C150.749 21.4852 151.134 23.5254 151.086 26.0134H141.543Z" fill="url(#paint9_linear_1741_3684)"/>
<path d="M247.126 26.0134C247.078 24.3713 246.596 23.1024 245.68 22.2067C244.813 21.2613 243.367 20.7886 241.343 20.7886C239.511 20.7886 237.993 21.0871 236.788 21.6843C235.632 22.2316 235.053 23.202 235.053 24.5952C235.053 25.4412 235.391 26.1627 236.065 26.7598C236.788 27.3569 238.017 27.9292 239.752 28.4765L244.885 30.1933C246.283 30.6411 247.56 31.1636 248.717 31.7607C249.922 32.3578 250.958 33.1042 251.825 33.9999C252.741 34.8458 253.44 35.8659 253.922 37.0602C254.452 38.2544 254.717 39.6477 254.717 41.24C254.717 43.6285 254.187 45.6687 253.127 47.3605C252.115 49.0026 250.765 50.3461 249.078 51.3911C247.391 52.4361 245.488 53.1825 243.367 53.6303C241.246 54.0782 239.102 54.3021 236.933 54.3021C235.101 54.3021 233.246 54.103 231.366 53.7049C229.487 53.3069 227.776 52.66 226.233 51.7643C224.739 50.8189 223.51 49.5997 222.546 48.1069C221.583 46.5644 221.101 44.6486 221.101 42.3596V40.7922H230.571V42.0611C230.571 42.9567 230.788 43.728 231.222 44.3749C231.655 45.0218 232.21 45.5692 232.884 46.017C233.607 46.4151 234.403 46.7385 235.27 46.9873C236.186 47.1864 237.078 47.2859 237.945 47.2859C238.716 47.2859 239.487 47.2113 240.258 47.062C241.03 46.9127 241.728 46.6639 242.355 46.3156C242.981 45.9175 243.488 45.4448 243.873 44.8974C244.259 44.3003 244.451 43.5539 244.451 42.6582C244.451 41.3147 244.114 40.3692 243.439 39.8219C242.765 39.2745 241.873 38.8018 240.764 38.4037L232.884 35.7913C231.583 35.3434 230.426 34.8707 229.414 34.3731C228.45 33.8755 227.607 33.2535 226.884 32.5071C226.209 31.7607 225.679 30.865 225.294 29.8201C224.956 28.7751 224.788 27.4813 224.788 25.9388C224.788 23.6498 225.294 21.734 226.306 20.1915C227.366 18.6489 228.716 17.4049 230.354 16.4594C231.993 15.4642 233.776 14.7676 235.704 14.3695C237.68 13.9217 239.56 13.6978 241.343 13.6978C243.367 13.6978 245.319 13.8719 247.199 14.2202C249.078 14.5686 250.717 15.2154 252.115 16.1609C253.56 17.0566 254.693 18.3006 255.512 19.8929C256.332 21.4852 256.717 23.5254 256.669 26.0134H247.126Z" fill="url(#paint10_linear_1741_3684)"/>
<path d="M10.8435 0H14.032L28.0562 37.9443H28.2008L32.7224 14.6763H42.9802L35.0683 53.3312L32.1879 68H28.8737L23.7189 53.3312L15.1956 30.8201H15.051L10.6154 53.3312H0L10.8435 0Z" fill="url(#paint11_linear_1741_3684)"/>
<path fill-rule="evenodd" clip-rule="evenodd" d="M3.36852 2.50101L5.7978 2.50101V2.12218e-07L3.36852 0L3.36852 2.50101ZM10.335 2.50101L8.33662 2.50101V0L10.7659 2.12218e-07V0.381538L10.8435 6.93536e-05H14.032L28.0562 37.9444H28.2008L32.7224 14.6763H42.9802L35.0683 53.3312L32.1879 68.0001H28.8737L23.7189 53.3312L15.1956 30.8202H15.051L10.6154 53.3312H0L7.78856 15.0249H5.79782L5.79782 12.5239H8.2271V12.8681L9.32536 7.46649H8.33662L8.33662 4.96548H9.83388L10.335 2.50101ZM8.2819 9.94731H5.85262L5.85262 7.4463H8.2819V9.94731ZM8.2271 4.98449H5.79782L5.79782 2.48348L8.2271 2.48348V4.98449ZM3.36852 7.46649H5.7978V4.96548L3.36852 4.96548L3.36852 7.46649ZM3.3685 5.02089H0.939225L0.939226 2.51988L3.3685 2.51988L3.3685 5.02089Z" fill="url(#paint12_linear_1741_3684)"/>
<path fill-rule="evenodd" clip-rule="evenodd" d="M296.086 13.2085H293.657V15.7095H296.086V13.2085ZM293.602 20.6548H291.173V22.3526L289.807 22.2882L288.152 30.8787H273.509L276.818 13.6976H265.942L257.885 53.3236H268.71L272.007 37.1796H286.651L283.353 53.3236H293.304L299.562 22.748L298.57 22.7012V20.6548H296.141V22.5867L293.602 22.4671V20.6548ZM296.141 18.1713H293.712V20.6723H296.141V18.1713ZM291.754 15.6893H293.602V18.1903H291.173L291.754 15.6893ZM298.57 15.6893H296.141V18.1903H298.57V15.6893ZM298.57 18.1349H301V20.6359H298.57V18.1349Z" fill="url(#paint13_linear_1741_3684)"/>
<path d="M97.5493 23.5133H89.9512L91.7654 14.6763H117.613L115.799 23.5133H107.5L101.452 53.3238H91.5015L97.5493 23.5133Z" fill="url(#paint14_linear_1741_3684)"/>
<path d="M163.361 23.5133H155.763L157.577 14.6763H183.424L181.61 23.5133H173.311L167.263 53.3238H157.313L163.361 23.5133Z" fill="url(#paint15_linear_1741_3684)"/>
<path d="M184.775 26.4612C185.113 24.023 185.836 22.0077 186.944 20.4154C188.053 18.7733 189.402 17.4546 190.993 16.4594C192.583 15.4642 194.366 14.7676 196.342 14.3695C198.318 13.9217 200.367 13.6978 202.487 13.6978C204.174 13.6978 205.933 13.8222 207.765 14.071C209.596 14.3198 211.283 14.8174 212.825 15.5638C214.368 16.2604 215.621 17.2805 216.585 18.624C217.597 19.9178 218.079 21.6594 218.03 23.8488C218.03 25.69 217.765 27.8545 217.235 30.3425L213.91 45.8677C213.717 46.5644 213.572 47.4352 213.476 48.4801C213.428 49.4753 213.404 50.3461 213.404 51.0925C213.404 51.7394 213.524 52.4858 213.765 53.3317H203.499V49.5251C202.102 51.1672 200.391 52.3863 198.367 53.1825C196.342 53.9289 194.246 54.3021 192.077 54.3021C190.053 54.3021 188.269 54.0284 186.727 53.481C185.233 52.9337 183.98 52.2121 182.968 51.3165C181.956 50.371 181.209 49.3012 180.727 48.1069C180.245 46.8629 180.004 45.5692 180.004 44.2256C180.004 40.4936 181.233 37.508 183.691 35.2688C186.197 33.0296 189.715 31.6363 194.246 31.0889C196.656 30.7904 198.752 30.5665 200.535 30.4172C202.319 30.2679 203.789 30.044 204.945 29.7454C206.15 29.3971 207.042 28.9244 207.62 28.3272C208.198 27.6804 208.488 26.7349 208.488 25.4909C208.488 24.4957 208.271 23.6996 207.837 23.1024C207.403 22.5053 206.849 22.0326 206.174 21.6843C205.548 21.3359 204.849 21.112 204.078 21.0125C203.355 20.8632 202.656 20.7886 201.981 20.7886C200.15 20.7886 198.511 21.2613 197.065 22.2067C195.619 23.1024 194.728 24.5206 194.39 26.4612H184.775ZM206.463 34.821C205.162 35.6171 203.764 36.1147 202.27 36.3138C200.776 36.463 199.282 36.5874 197.788 36.687C196.824 36.7865 195.884 36.9606 194.969 37.2094C194.053 37.4085 193.234 37.7319 192.511 38.1798C191.836 38.6276 191.282 39.2496 190.848 40.0458C190.414 40.7922 190.197 41.7625 190.197 42.9567C190.197 44.3998 190.752 45.4945 191.86 46.2409C193.017 46.9376 194.342 47.2859 195.836 47.2859C197.427 47.2859 198.752 47.0371 199.812 46.5395C200.921 45.9921 201.837 45.3204 202.56 44.5242C203.331 43.6783 203.933 42.7328 204.367 41.6879C204.801 40.6429 205.162 39.5979 205.451 38.553L206.463 34.821Z" fill="url(#paint16_linear_1741_3684)"/>
<defs>
<linearGradient id="paint0_linear_1741_3684" x1="8.28223" y1="8.69676" x2="5.85295" y2="8.69676" gradientUnits="userSpaceOnUse">
<stop stop-color="#D926AA"/>
<stop offset="1" stop-color="#5C2EDD"/>
</linearGradient>
<linearGradient id="paint1_linear_1741_3684" x1="10.7656" y1="1.25047" x2="8.33635" y2="1.25047" gradientUnits="userSpaceOnUse">
<stop stop-color="#D926AA"/>
<stop offset="1" stop-color="#5C2EDD"/>
</linearGradient>
<linearGradient id="paint2_linear_1741_3684" x1="5.79785" y1="1.25047" x2="3.36857" y2="1.25047" gradientUnits="userSpaceOnUse">
<stop stop-color="#D926AA"/>
<stop offset="1" stop-color="#5C2EDD"/>
</linearGradient>
<linearGradient id="paint3_linear_1741_3684" x1="8.22754" y1="3.73387" x2="5.79826" y2="3.73387" gradientUnits="userSpaceOnUse">
<stop stop-color="#D926AA"/>
<stop offset="1" stop-color="#5C2EDD"/>
</linearGradient>
<linearGradient id="paint4_linear_1741_3684" x1="8.22754" y1="13.7744" x2="5.79826" y2="13.7744" gradientUnits="userSpaceOnUse">
<stop stop-color="#D926AA"/>
<stop offset="1" stop-color="#5C2EDD"/>
</linearGradient>
<linearGradient id="paint5_linear_1741_3684" x1="10.7656" y1="6.2158" x2="8.33635" y2="6.2158" gradientUnits="userSpaceOnUse">
<stop stop-color="#D926AA"/>
<stop offset="1" stop-color="#5C2EDD"/>
</linearGradient>
<linearGradient id="paint6_linear_1741_3684" x1="5.79785" y1="6.2158" x2="3.36857" y2="6.2158" gradientUnits="userSpaceOnUse">
<stop stop-color="#D926AA"/>
<stop offset="1" stop-color="#5C2EDD"/>
</linearGradient>
<linearGradient id="paint7_linear_1741_3684" x1="3.36914" y1="3.77049" x2="0.939862" y2="3.77049" gradientUnits="userSpaceOnUse">
<stop stop-color="#D926AA"/>
<stop offset="1" stop-color="#5C2EDD"/>
</linearGradient>
<linearGradient id="paint8_linear_1741_3684" x1="67.3251" y1="14.7144" x2="67.3251" y2="54.3019" gradientUnits="userSpaceOnUse">
<stop stop-color="#D926AA"/>
<stop offset="1" stop-color="#5C2EDD"/>
</linearGradient>
<linearGradient id="paint9_linear_1741_3684" x1="133.304" y1="13.6978" x2="133.304" y2="54.3021" gradientUnits="userSpaceOnUse">
<stop stop-color="#D926AA"/>
<stop offset="1" stop-color="#5C2EDD"/>
</linearGradient>
<linearGradient id="paint10_linear_1741_3684" x1="238.887" y1="13.6978" x2="238.887" y2="54.3021" gradientUnits="userSpaceOnUse">
<stop stop-color="#D926AA"/>
<stop offset="1" stop-color="#5C2EDD"/>
</linearGradient>
<linearGradient id="paint11_linear_1741_3684" x1="0" y1="34" x2="42.9802" y2="34" gradientUnits="userSpaceOnUse">
<stop stop-color="#D926AA"/>
<stop offset="1" stop-color="#5C2EDD"/>
</linearGradient>
<linearGradient id="paint12_linear_1741_3684" x1="21.4901" y1="0" x2="21.4901" y2="68.0001" gradientUnits="userSpaceOnUse">
<stop stop-color="#D926AA"/>
<stop offset="1" stop-color="#5C2EDD"/>
</linearGradient>
<linearGradient id="paint13_linear_1741_3684" x1="279.442" y1="13.2085" x2="279.442" y2="53.3236" gradientUnits="userSpaceOnUse">
<stop stop-color="#D926AA"/>
<stop offset="1" stop-color="#5C2EDD"/>
</linearGradient>
<linearGradient id="paint14_linear_1741_3684" x1="103.782" y1="14.6763" x2="103.782" y2="53.3238" gradientUnits="userSpaceOnUse">
<stop stop-color="#D926AA"/>
<stop offset="1" stop-color="#5C2EDD"/>
</linearGradient>
<linearGradient id="paint15_linear_1741_3684" x1="169.593" y1="14.6763" x2="169.593" y2="53.3238" gradientUnits="userSpaceOnUse">
<stop stop-color="#D926AA"/>
<stop offset="1" stop-color="#5C2EDD"/>
</linearGradient>
<linearGradient id="paint16_linear_1741_3684" x1="199.019" y1="13.6978" x2="199.019" y2="54.3021" gradientUnits="userSpaceOnUse">
<stop stop-color="#D926AA"/>
<stop offset="1" stop-color="#5C2EDD"/>
</linearGradient>
</defs>
</svg>
