<svg width="141" height="141" viewBox="0 0 141 141" fill="none" xmlns="http://www.w3.org/2000/svg">
<rect width="141" height="141" rx="10" fill="url(#paint0_linear_186_2956)"/>
<path d="M111.311 81.1487C111.311 98.1586 79.4558 122.459 69.6541 122.459C59.8524 122.459 27.997 98.1586 27.997 81.1487C27.997 56.9918 45.2942 44.6987 69.6541 44.6987C94.014 44.6987 111.311 56.9918 111.311 81.1487Z" fill="#F29D38"/>
<path d="M91.9242 31.515C95.993 24.4676 111.386 19.9314 114.334 21.6334C117.282 23.3353 121.05 38.9345 116.982 45.9819C111.203 55.9904 103.06 58.08 95.734 53.85C88.4076 49.6201 86.1458 41.5235 91.9242 31.515Z" fill="#F29D38"/>
<path d="M20.87 45.8742C16.8545 38.9191 20.5733 23.5245 23.4826 21.8448C26.3919 20.1651 41.5834 24.6419 45.5989 31.5969C51.3015 41.4741 49.0694 49.4646 41.839 53.6391C34.6086 57.8136 26.5726 55.7514 20.87 45.8742Z" fill="#F29D38"/>
<path fill-rule="evenodd" clip-rule="evenodd" d="M70.4489 65.8853C71.6577 65.8853 72.6377 67.0143 72.6377 68.407L72.6377 103.711C72.6377 105.104 71.6577 106.233 70.4489 106.233C69.24 106.233 68.2601 105.104 68.2601 103.711L68.2601 68.407C68.2601 67.0143 69.24 65.8853 70.4489 65.8853Z" fill="#90665E"/>
<path d="M80.2986 118.773C80.2986 121.483 75.8887 123.68 70.4489 123.68C65.009 123.68 60.5992 121.483 60.5992 118.773C60.5992 116.063 65.009 113.866 70.4489 113.866C75.8887 113.866 80.2986 116.063 80.2986 118.773Z" fill="black"/>
<path d="M95.6204 57.7071C95.6204 63.4285 84.3507 68.0666 70.4489 68.0666C56.5471 68.0666 45.2774 63.4285 45.2774 57.7071C45.2774 51.9857 56.5471 47.3477 70.4489 47.3477C84.3507 47.3477 95.6204 51.9857 95.6204 57.7071Z" fill="black"/>
<path fill-rule="evenodd" clip-rule="evenodd" d="M73.7531 49.547C74.1144 49.6062 74.3466 49.7936 74.307 49.9941L73.1342 55.9362H76.6826C77.1691 55.9362 77.6453 56.0286 77.9198 56.2563C78.1696 56.4636 78.1517 56.706 77.9901 56.8837L77.9048 56.9813C77.8985 56.9885 77.8918 56.9956 77.8848 57.0025L69.1584 65.6633C68.9796 65.8407 68.5903 65.9259 68.2293 65.8666C67.8683 65.8072 67.6365 65.62 67.6761 65.4196L68.8488 59.4774H65.3004C64.8612 59.4774 64.2 59.4135 63.9555 59.0682C63.8513 58.921 63.8764 58.78 63.9216 58.679C63.9677 58.5762 64.0486 58.4825 64.1299 58.405C64.1899 58.3477 64.2264 58.3133 64.2471 58.2941C64.2517 58.2899 64.2564 58.2856 64.261 58.2815L72.8241 49.751C73.0025 49.5732 73.3918 49.4877 73.7531 49.547Z" fill="white"/>
<path d="M94.6384 38.9041C96.5286 35.6421 102.259 32.725 103.191 33.2613C104.123 33.7976 104.453 40.2006 102.563 43.4626C99.8783 48.0952 96.8672 49.5062 94.5502 48.1734C92.2333 46.8405 91.9542 43.5367 94.6384 38.9041Z" fill="#90665E"/>
<path d="M33.3986 42.8021C31.5332 39.5828 31.8586 33.2638 32.7786 32.7345C33.6986 32.2053 39.3535 35.0841 41.2189 38.3033C43.868 42.8751 43.5925 46.1357 41.3059 47.451C39.0194 48.7664 36.0477 47.3739 33.3986 42.8021Z" fill="#90665E"/>
<path d="M129 73.2183H12.445V86.3039H16.8227V90.6658H21.7475V95.0276H26.1252V99.3895H52.9383V95.0276H57.3159V90.6658H61.6936V86.3039H66.6185V81.942H74.8265V86.3039H79.7514V90.6658H84.1291V95.0276H88.5067V99.3895H115.867V95.0276H120.245V90.6658H124.622V86.3039H129V73.2183Z" fill="black"/>
<path d="M34.9792 86.3374L30.5028 86.3374L30.5028 82.0083L34.9792 82.0083L34.9792 86.3374Z" fill="white"/>
<path d="M30.5189 90.6631L26.0425 90.6631L26.0425 86.334L30.5189 86.334L30.5189 90.6631Z" fill="white"/>
<path d="M39.4718 90.6631L34.9954 90.6631L34.9954 86.334L39.4718 86.334L39.4718 90.6631Z" fill="white"/>
<path d="M88.7122 86.3374L84.2358 86.3374L84.2358 82.0083L88.7122 82.0083L88.7122 86.3374Z" fill="white"/>
<path d="M97.6651 86.3374L93.1887 86.3374L93.1887 82.0083L97.6651 82.0083L97.6651 86.3374Z" fill="white"/>
<path d="M97.6651 94.9937L93.1887 94.9937L93.1887 90.6646L97.6651 90.6646L97.6651 94.9937Z" fill="white"/>
<path d="M106.618 94.9937L102.142 94.9937L102.142 90.6646L106.618 90.6646L106.618 94.9937Z" fill="white"/>
<path d="M43.9481 94.9937L39.4717 94.9937L39.4717 90.6646L43.9481 90.6646L43.9481 94.9937Z" fill="white"/>
<path d="M26.0424 86.3374L21.5659 86.3374L21.5659 82.0083L26.0424 82.0083L26.0424 86.3374Z" fill="white"/>
<path d="M34.9953 94.9937L30.5189 94.9937L30.5189 90.6646L34.9953 90.6646L34.9953 94.9937Z" fill="white"/>
<path d="M93.1887 90.6631L88.7122 90.6631L88.7122 86.334L93.1887 86.334L93.1887 90.6631Z" fill="white"/>
<path d="M102.142 90.6631L97.6652 90.6631L97.6652 86.334L102.142 86.334L102.142 90.6631Z" fill="white"/>
<path fill-rule="evenodd" clip-rule="evenodd" d="M120.36 48.7433C117.589 53.5251 114.245 56.9726 110.508 58.9803C113.044 63.0926 114.787 67.8495 115.631 73.2182H110.469C109.614 68.4091 107.941 64.2584 105.593 60.7413C105.559 60.7477 105.526 60.754 105.492 60.7601C104.376 59.0815 103.104 57.5373 101.69 56.128C107.098 56.6146 112.481 53.5827 116.628 46.4255C120.637 39.5074 116.925 24.1946 114.02 22.5238C111.116 20.853 95.9504 25.306 91.9418 32.2241C88.1752 38.7246 87.8762 44.4035 90.1958 48.705C84.3536 46.3499 77.5188 45.1659 70.0013 45.1659C61.3462 45.1659 53.5962 46.7353 47.224 49.8545C50.3388 45.4862 50.4079 39.3897 46.3022 32.304C42.4102 25.5872 27.8612 21.225 24.6619 22.6556C24.5816 22.6667 24.5243 22.678 24.4869 22.6862C24.4609 22.7145 24.4225 22.7583 24.3725 22.8221C21.5296 24.87 18.0477 39.6031 21.9393 46.3193C26.6234 54.403 32.9054 57.1543 38.9931 55.4709C34.2159 59.945 30.949 65.8668 29.6234 73.2182H25.1242C25.9104 68.2181 27.4763 63.7486 29.7359 59.8363C25.2575 58.0463 21.2694 54.2937 18.0535 48.7437C16.6533 46.3272 16.0136 43.3534 15.8071 40.401C15.5984 37.4173 15.8193 34.265 16.2892 31.3494C16.7588 28.436 17.4906 25.6749 18.3503 23.4711C18.779 22.372 19.2611 21.3558 19.7917 20.5104C20.2841 19.726 20.9785 18.8252 21.9319 18.2768C22.8853 17.7283 24.0153 17.5795 24.9433 17.5469C25.9434 17.5117 27.0677 17.6038 28.2373 17.7834C30.5826 18.1435 33.3483 18.8925 36.1153 19.944C38.8845 20.9963 41.7347 22.3819 44.2237 24.0538C46.6866 25.7082 48.9514 27.7471 50.3516 30.1636C52.797 34.3838 54.1158 38.4696 54.3069 42.2779C59.2692 40.9947 64.6714 40.3628 70.3775 40.3628C75.2111 40.3628 79.8265 40.8162 84.1413 41.7348C84.425 38.0821 85.7322 34.1836 88.0618 30.1632C89.462 27.7467 91.7268 25.7078 94.1897 24.0534C96.6787 22.3815 99.529 20.9959 102.298 19.9436C105.065 18.8921 107.831 18.1431 110.176 17.783C111.346 17.6034 112.47 17.5113 113.47 17.5465C114.398 17.5791 115.528 17.7279 116.482 18.2764C117.435 18.8248 118.129 19.7255 118.622 20.51C119.152 21.3554 119.634 22.3716 120.063 23.4707C120.923 25.6745 121.655 28.4356 122.124 31.349C122.594 34.2646 122.815 37.4169 122.606 40.4006C122.4 43.353 121.76 46.3268 120.36 48.7433ZM32.2904 99.3894C35.4116 103.51 39.2202 107.497 43.2089 111.074C48.0965 115.457 53.3265 119.288 58.0258 122.04C60.3748 123.416 62.6287 124.544 64.6699 125.334C66.6692 126.109 68.6435 126.632 70.3775 126.632C72.1115 126.632 74.0859 126.109 76.0851 125.334C78.1263 124.544 80.3802 123.416 82.7292 122.04C87.4285 119.288 92.6586 115.457 97.5461 111.074C101.535 107.497 105.343 103.51 108.465 99.3894H102.12C94.9273 107.847 84.8119 115.535 77.3198 119.214C76.2179 119.772 75.1854 120.238 74.2392 120.605C72.4784 121.287 71.19 121.557 70.3775 121.557C70.1329 121.557 69.8451 121.533 69.5143 121.48C62.8812 120.989 47.6738 110.903 37.8826 99.3894H32.2904Z" fill="black"/>
<defs>
<linearGradient id="paint0_linear_186_2956" x1="70.5" y1="0" x2="70.5" y2="141" gradientUnits="userSpaceOnUse">
<stop stop-color="#5C2EDD"/>
<stop offset="1" stop-color="#D926AA"/>
</linearGradient>
</defs>
</svg>
